<svg width="22" height="22" viewBox="0 0 22 22" fill="none" xmlns="http://www.w3.org/2000/svg">
<path d="M11 4.98438C8.63066 4.98438 6.70312 6.91195 6.70312 9.28125C6.70312 11.6505 8.63066 13.5781 11 13.5781C13.3693 13.5781 15.2969 11.6505 15.2969 9.28125C15.2969 6.91195 13.3693 4.98438 11 4.98438ZM11 11.8594C9.57842 11.8594 8.42188 10.7028 8.42188 9.28125C8.42188 7.85967 9.57842 6.70312 11 6.70312C12.4216 6.70312 13.5781 7.85967 13.5781 9.28125C13.5781 10.7028 12.4216 11.8594 11 11.8594ZM11 0C4.83175 0 0 4.83175 0 11C0 17.1897 4.85375 22 11 22C17.1541 22 22 17.1808 22 11C22 4.83175 17.1683 0 11 0ZM11 20.2812C8.98077 20.2812 7.13148 19.6673 5.62396 18.6121C6.63553 16.6062 8.72154 15.2969 11 15.2969C13.2785 15.2969 15.3645 16.6062 16.376 18.6121C14.8685 19.6672 13.0193 20.2812 11 20.2812ZM17.7135 17.4681C17.1546 16.4916 16.3878 15.6472 15.4532 14.9881C14.1453 14.0656 12.6054 13.5781 11 13.5781C9.3946 13.5781 7.85473 14.0656 6.54685 14.9881C5.61228 15.6472 4.84537 16.4916 4.28652 17.4682C2.68898 15.8084 1.71875 13.5385 1.71875 11C1.71875 5.79558 5.79558 1.71875 11 1.71875C16.2044 1.71875 20.2812 5.79558 20.2812 11C20.2812 13.5385 19.311 15.8084 17.7135 17.4681V17.4681Z" fill="black"/>
</svg>
