<svg fill="none" height="512" viewBox="0 0 24 24" width="512" xmlns="http://www.w3.org/2000/svg"><path clip-rule="evenodd" d="m22.8223 5.00708c.873-2.49388-1.504-4.552154-3.8068-3.87267-.0137.00405-.0274.0084-.041.01304l-15.93924 5.45803c-2.773986.8901-2.692612 4.79692.12127 5.64382.00952.0029.01908.0056.02868.0082l5.34826 1.4372c.01128.003.0226.0059.03397.0085.81672.1891 1.44426.8206 1.74756 1.7937l1.4264 5.3426c.0002.0008.0004.0016.0006.0024.747 2.8393 4.651 2.8505 5.6301.1844l.008-.0226zm-3.2228-1.95963c.9334-.26262 1.6005.54464 1.3343 1.30122l-5.4427 15.99793c-.3625.9632-1.6062.7821-1.8151-.0145l-1.4337-5.3699c-.0032-.0118-.0066-.0236-.0101-.0353-.4611-1.5032-1.5439-2.7781-3.19547-3.1679l-5.31606-1.4286c-.98935-.3082-.90898-1.55614-.06942-1.82213l.02194-.00723z" fill="rgb(0,0,0)" fill-rule="evenodd"/></svg>