<svg width="22" height="22" viewBox="0 0 22 22" fill="none" xmlns="http://www.w3.org/2000/svg">
<g clip-path="url(#clip0_43_381)">
<path d="M5.22535 8.82145e-05C4.97333 -0.00326747 4.72001 0.089107 4.52497 0.278507C4.12678 0.66522 4.12598 1.30394 4.5231 1.6918L6.01057 3.17927L7.3044 4.4731L8.06355 5.23224H4.5732C3.13083 5.23224 1.94738 6.2044 1.18689 7.49332C0.42641 8.78223 0 10.4564 0 12.2968V14.9364C0 16.7768 0.42641 18.45 1.18689 19.7389C1.94738 21.0278 3.13083 22 4.5732 22H17.1281C18.5704 22 19.7577 21.0278 20.5182 19.7389C21.2787 18.45 21.7051 16.7768 21.7051 14.9364V12.2968C21.7051 10.4564 21.2787 8.78223 20.5182 7.49332C19.7577 6.2044 18.5704 5.23224 17.1281 5.23224H13.6416L14.4007 4.4731L15.6945 3.17927L17.182 1.6918C17.5791 1.30394 17.5783 0.66522 17.1801 0.278507C16.9851 0.0891052 16.7318 -0.0032395 16.4798 8.82145e-05C16.2277 0.0034439 15.9771 0.102325 15.7871 0.296813L14.2996 1.78428L13.0058 3.07811L10.8526 5.23224L8.69945 3.07811L7.40562 1.78428L5.91815 0.296813C5.72817 0.102326 5.47749 0.00341593 5.22547 8.82145e-05H5.22535ZM4.57314 7.20237H17.128C17.673 7.20237 18.2815 7.58624 18.8178 8.49524C19.3541 9.40424 19.7311 10.7688 19.7311 12.2968V14.9364C19.7311 16.4644 19.3541 17.829 18.8178 18.738C18.2815 19.647 17.673 20.0299 17.128 20.0299H4.57314C4.02813 20.0299 3.41968 19.647 2.88335 18.738C2.34703 17.829 1.97392 16.4644 1.97392 14.9364V12.2968C1.97392 10.7688 2.34703 9.40424 2.88335 8.49524C3.41968 7.58624 4.02813 7.20237 4.57314 7.20237ZM8.75905 11.3604C7.99944 11.3605 7.23929 11.6475 6.66561 12.2216L5.96908 12.9191C5.58011 13.2991 5.572 13.9221 5.95081 14.3122C6.33735 14.7102 6.9762 14.7106 7.3641 14.314V14.3131L8.06063 13.6165C8.45416 13.2227 9.06286 13.2229 9.45658 13.6165L10.1541 14.314L10.8516 15.0115C11.9995 16.1592 13.8911 16.1588 15.0384 15.0106L15.735 14.314H15.7359C16.133 13.9262 16.1312 13.2875 15.733 12.9007C15.3428 12.522 14.7199 12.5301 14.3399 12.919L13.6424 13.6155C13.2489 14.0094 12.6402 14.0102 12.2465 13.6165L11.549 12.919L10.8515 12.2206C10.2775 11.6467 9.5186 11.3602 8.75899 11.3603L8.75905 11.3604Z" fill="black"/>
</g>
<defs>
<clipPath id="clip0_43_381">
<rect width="22" height="22" fill="white"/>
</clipPath>
</defs>
</svg>
