<?xml version="1.0" encoding="iso-8859-1"?>
<!-- Generator: Adobe Illustrator 17.1.0, SVG Export Plug-In . SVG Version: 6.00 Build 0)  -->
<!DOCTYPE svg PUBLIC "-//W3C//DTD SVG 1.1//EN" "http://www.w3.org/Graphics/SVG/1.1/DTD/svg11.dtd">
<svg version="1.1" id="Capa_1" xmlns="http://www.w3.org/2000/svg" xmlns:xlink="http://www.w3.org/1999/xlink" x="0px" y="0px"
	 viewBox="0 0 207.333 207.333" style="enable-background:new 0 0 207.333 207.333;" xml:space="preserve">
<path d="M103.667,207.333C46.505,207.333,0,160.828,0,103.667C0,46.505,46.505,0,103.667,0s103.666,46.505,103.666,103.667
	C207.333,160.828,160.829,207.333,103.667,207.333z M103.667,10C52.019,10,10,52.019,10,103.667
	c0,51.647,42.019,93.666,93.667,93.666c51.647,0,93.666-42.019,93.666-93.666C197.333,52.019,155.314,10,103.667,10z
	 M103.667,188.302c-46.668,0-84.635-37.967-84.635-84.635s37.967-84.635,84.635-84.635s84.635,37.967,84.635,84.635
	S150.335,188.302,103.667,188.302z M103.667,29.032c-41.154,0-74.635,33.481-74.635,74.635s33.481,74.635,74.635,74.635
	c41.153,0,74.635-33.481,74.635-74.635S144.82,29.032,103.667,29.032z M103.667,168.299c-35.638,0-64.632-28.994-64.632-64.632
	s28.994-64.632,64.632-64.632c35.638,0,64.632,28.994,64.632,64.632S139.305,168.299,103.667,168.299z M103.667,49.035
	c-30.125,0-54.632,24.508-54.632,54.632s24.508,54.632,54.632,54.632c30.124,0,54.632-24.508,54.632-54.632
	S133.791,49.035,103.667,49.035z M124.698,138.246c-0.796,0-1.595-0.189-2.327-0.574l-18.704-9.834l-18.705,9.834
	c-1.684,0.886-3.726,0.738-5.266-0.381c-1.54-1.118-2.311-3.015-1.989-4.891l3.572-20.827L66.147,96.822
	c-1.363-1.328-1.853-3.315-1.265-5.125c0.588-1.811,2.153-3.13,4.037-3.403l20.912-3.038l9.353-18.95
	c0.842-1.707,2.581-2.787,4.484-2.787s3.642,1.08,4.483,2.787l9.353,18.95l20.912,3.038c1.884,0.273,3.448,1.593,4.036,3.403
	c0.589,1.81,0.098,3.797-1.265,5.125l-15.133,14.751l3.572,20.827c0.322,1.876-0.449,3.772-1.988,4.891
	C126.767,137.924,125.734,138.246,124.698,138.246z M80.382,96.733l9.76,9.515c1.178,1.148,1.716,2.804,1.438,4.425l-2.304,13.434
	l12.064-6.343c1.457-0.766,3.197-0.766,4.654,0l12.063,6.343l-2.304-13.434c-0.278-1.621,0.259-3.276,1.438-4.425l9.76-9.515
	l-13.487-1.959c-1.629-0.236-3.036-1.26-3.765-2.735l-6.032-12.223l-6.033,12.223c-0.728,1.476-2.136,2.499-3.765,2.735
	L80.382,96.733z"/>
<g>
</g>
<g>
</g>
<g>
</g>
<g>
</g>
<g>
</g>
<g>
</g>
<g>
</g>
<g>
</g>
<g>
</g>
<g>
</g>
<g>
</g>
<g>
</g>
<g>
</g>
<g>
</g>
<g>
</g>
</svg>
