<svg width="22" height="22" viewBox="0 0 22 22" fill="none" xmlns="http://www.w3.org/2000/svg">
<g clip-path="url(#clip0_43_353)">
<path d="M19.7086 5.93216C19.5484 5.76462 19.3261 5.66992 19.0942 5.66992H2.90607C2.67473 5.66992 2.45301 5.76432 2.29257 5.9313C2.13238 6.09802 2.04679 6.32309 2.05611 6.55443C2.06006 6.6463 2.42693 15.7859 2.59446 19.5602C2.6373 20.9282 3.75802 21.9998 5.14573 21.9998H16.8261C18.2139 21.9998 19.3346 20.9279 19.3769 19.5704L19.9439 6.55727C19.9541 6.32567 19.8688 6.0997 19.7086 5.93216ZM17.677 19.5069C17.6633 19.9435 17.2817 20.2988 16.8262 20.2988H5.14573C4.69014 20.2988 4.30853 19.9435 4.29435 19.4959C4.15741 16.4119 3.88808 9.76828 3.7914 7.37093H18.2057L17.677 19.5069Z" fill="black"/>
<path d="M10.986 0C8.25044 0 6.02466 2.22578 6.02466 4.96134V11.2835C6.02466 11.7533 6.4054 12.134 6.87518 12.134C7.34496 12.134 7.72571 11.7533 7.72571 11.2835V4.96134C7.72571 3.16362 9.18832 1.70105 10.986 1.70105C12.7837 1.70105 14.2463 3.16366 14.2463 4.96134V11.2835C14.2463 11.7533 14.627 12.134 15.0968 12.134C15.5666 12.134 15.9473 11.7533 15.9473 11.2835V4.96134C15.9473 2.22578 13.7215 0 10.986 0Z" fill="black"/>
</g>
<defs>
<clipPath id="clip0_43_353">
<rect width="22" height="22" fill="white"/>
</clipPath>
</defs>
</svg>
