<svg id="Capa_1" enable-background="new 0 0 365.44 365.44" height="512" viewBox="0 0 365.44 365.44" width="512" xmlns="http://www.w3.org/2000/svg"><g><path d="m285.976 365.44c-7.28 0-14.432-2.096-20.688-6.064l-78.976-50.144c-2.16-1.376-5.024-1.36-7.168 0l-78.992 50.144c-14.736 9.36-35.056 7.184-47.552-4.736-7.664-7.328-11.888-17.248-11.888-27.936v-288.016c.016-21.328 17.376-38.688 38.704-38.688h206.624c21.328 0 38.688 17.36 38.688 38.688v288.016c0 21.36-17.376 38.736-38.752 38.736zm-103.248-89.248c7.36 0 14.544 2.08 20.752 6.032l78.976 50.128c1.136.72 2.304 1.072 3.536 1.072 2.72 0 6.752-2.128 6.752-6.72v-288.016c-.016-3.68-3.024-6.688-6.704-6.688h-206.624c-3.696 0-6.688 3.008-6.688 6.688v288.016c0 1.92.672 3.52 2 4.784 2.192 2.096 5.536 2.608 8.288.864l78.976-50.144c6.192-3.936 13.376-6.016 20.736-6.016z"/></g></svg>