<svg width="22" height="22" viewBox="0 0 22 22" fill="none" xmlns="http://www.w3.org/2000/svg">
<path d="M8.85431 17.7008C10.8207 17.7008 12.7308 17.0448 14.2822 15.8365L20.1349 21.6892C20.5721 22.1114 21.2688 22.0993 21.691 21.6621C22.103 21.2356 22.103 20.5595 21.691 20.133L15.8383 14.2803C18.8367 10.4207 18.1385 4.86116 14.2788 1.86283C10.4191 -1.1355 4.8597 -0.437293 1.86137 3.42237C-1.13697 7.28203 -0.438759 12.8415 3.4209 15.8399C4.97477 17.047 6.88663 17.7018 8.85431 17.7008ZM4.15172 4.1498C6.74891 1.55255 10.9598 1.55251 13.557 4.1497C16.1543 6.7469 16.1543 10.9578 13.5571 13.555C10.9599 16.1523 6.74906 16.1523 4.15181 13.5551C4.15176 13.5551 4.15176 13.5551 4.15172 13.555C1.55452 10.9768 1.53922 6.78122 4.11749 4.18402C4.12888 4.17258 4.14028 4.16119 4.15172 4.1498V4.1498Z" fill="black"/>
</svg>
